<svg width="30" height="30" viewBox="0 0 30 30" fill="none" xmlns="http://www.w3.org/2000/svg">
<g id="bi:linkedin" clip-path="url(#clip0_198_597)">
<path id="Vector" d="M0.599609 2.8628C0.599609 1.7234 1.54641 0.800003 2.71461 0.800003H27.2846C28.4528 0.800003 29.3996 1.7234 29.3996 2.8628V27.5372C29.3996 28.6766 28.4528 29.6 27.2846 29.6H2.71461C1.54641 29.6 0.599609 28.6766 0.599609 27.5372V2.8628ZM9.49701 24.9092V11.9042H5.17521V24.9092H9.49701ZM7.33701 10.1276C8.84361 10.1276 9.78141 9.1304 9.78141 7.8812C9.75441 6.605 8.84541 5.6348 7.36581 5.6348C5.88621 5.6348 4.91961 6.6068 4.91961 7.8812C4.91961 9.1304 5.85741 10.1276 7.30821 10.1276H7.33701ZM16.1714 24.9092V17.6462C16.1714 17.2574 16.2002 16.8686 16.3154 16.5914C16.6268 15.8156 17.3378 15.011 18.533 15.011C20.0972 15.011 20.7218 16.2026 20.7218 17.9522V24.9092H25.0436V17.45C25.0436 13.454 22.9124 11.5964 20.0684 11.5964C17.7752 11.5964 16.7474 12.8564 16.1714 13.7438V13.7888H16.1426C16.1522 13.7738 16.1618 13.7588 16.1714 13.7438V11.9042H11.8514C11.9054 13.1246 11.8514 24.9092 11.8514 24.9092H16.1714Z" fill="white"/>
</g>
<defs>
<clipPath id="clip0_198_597">
<rect width="28.8" height="28.8" fill="white" transform="translate(0.599609 0.800003)"/>
</clipPath>
</defs>
</svg>
