<svg width="61" height="62" viewBox="0 0 61 62" fill="none" xmlns="http://www.w3.org/2000/svg">
<path d="M20.3335 13.8438C19.9933 13.8438 19.6981 13.5486 19.6981 13.2084V5.58337C19.6981 5.24315 19.9933 4.94796 20.3335 4.94796C20.6737 4.94796 20.9689 5.24315 20.9689 5.58337V13.2084C20.9689 13.5486 20.6737 13.8438 20.3335 13.8438Z" fill="white" stroke="white" stroke-width="2.54167"/>
<path d="M40.6665 13.8438C40.3263 13.8438 40.0311 13.5486 40.0311 13.2084V5.58337C40.0311 5.24315 40.3263 4.94796 40.6665 4.94796C41.0067 4.94796 41.3019 5.24315 41.3019 5.58337V13.2084C41.3019 13.5486 41.0067 13.8438 40.6665 13.8438Z" fill="white" stroke="white" stroke-width="2.54167"/>
<path d="M21.1271 35.9778L21.1109 35.971L21.0945 35.9647C20.961 35.9134 20.8454 35.8431 20.6901 35.7081C20.457 35.4467 20.3333 35.1313 20.3333 34.8125C20.3333 34.6749 20.366 34.5104 20.4389 34.3354C20.5014 34.1854 20.5873 34.043 20.7021 33.9064C20.8514 33.7782 20.9645 33.7103 21.0945 33.6602L21.1109 33.6539L21.1271 33.6472C21.5788 33.459 22.162 33.5695 22.4984 33.895C22.7398 34.1565 22.875 34.5034 22.875 34.8125C22.875 34.8547 22.8667 34.9315 22.84 35.1195C22.8364 35.1367 22.8276 35.1664 22.8058 35.21L22.7654 35.2908L22.7369 35.3765C22.7263 35.408 22.704 35.4595 22.6564 35.5309L22.6396 35.556L22.6342 35.565C22.6284 35.5723 22.6187 35.5843 22.6025 35.6033C22.5881 35.6202 22.5763 35.6339 22.561 35.6515C22.5513 35.6627 22.5402 35.6755 22.5263 35.6917C22.5143 35.7055 22.501 35.721 22.4867 35.7379C22.2298 35.9597 21.8996 36.0833 21.6042 36.0833C21.4665 36.0833 21.302 36.0507 21.1271 35.9778Z" fill="white" stroke="white" stroke-width="2.54167"/>
<path d="M30.0231 35.9778L30.0069 35.9711L29.9905 35.9648C29.857 35.9134 29.7414 35.8431 29.586 35.7082C29.3529 35.4468 29.2293 35.1314 29.2293 34.8125C29.2293 34.6749 29.262 34.5105 29.3349 34.3355C29.3974 34.1854 29.4833 34.0431 29.5981 33.9065C29.7474 33.7783 29.8605 33.7103 29.9905 33.6603L30.0208 33.6487L30.0505 33.6355C30.4638 33.4518 31.0404 33.5515 31.3943 33.8949C31.6358 34.1564 31.771 34.5034 31.771 34.8125C31.771 34.8547 31.7627 34.9316 31.736 35.1195C31.7324 35.1368 31.7236 35.1665 31.7018 35.2101L31.6614 35.2908L31.6329 35.3765C31.6223 35.4081 31.6 35.4595 31.5524 35.5309L31.5356 35.5561L31.5302 35.5651C31.5244 35.5724 31.5147 35.5843 31.4985 35.6034C31.4841 35.6203 31.4723 35.634 31.457 35.6516C31.4473 35.6628 31.4362 35.6756 31.4223 35.6917C31.4103 35.7056 31.397 35.7211 31.3827 35.738C31.1258 35.9598 30.7956 36.0834 30.5002 36.0834C30.3625 36.0834 30.198 36.0507 30.0231 35.9778Z" fill="white" stroke="white" stroke-width="2.54167"/>
<path d="M38.9186 35.9778L38.9024 35.9711L38.886 35.9648C38.7616 35.9169 38.6527 35.8526 38.5127 35.7349L38.3197 35.4935C38.288 35.4413 38.2715 35.4023 38.263 35.3765L38.2344 35.2908L38.194 35.2101C38.1722 35.1665 38.1635 35.1368 38.1598 35.1195C38.1332 34.9316 38.1248 34.8547 38.1248 34.8125C38.1248 34.5119 38.2528 34.1753 38.4821 33.9164C38.6372 33.7818 38.7527 33.7116 38.886 33.6603L38.9103 33.651L38.9342 33.6406C39.3818 33.4471 39.9385 33.5537 40.2897 33.8948C40.5313 34.1563 40.6665 34.5034 40.6665 34.8125C40.6665 34.8547 40.6582 34.9316 40.6315 35.1195C40.6279 35.1368 40.6191 35.1665 40.5973 35.2101L40.5569 35.2908L40.5284 35.3765C40.5179 35.4081 40.4955 35.4595 40.4479 35.5309L40.4311 35.5561L40.4257 35.5651C40.4199 35.5724 40.4102 35.5843 40.394 35.6034C40.3796 35.6203 40.3678 35.634 40.3525 35.6516C40.3428 35.6628 40.3317 35.6756 40.3178 35.6917C40.3058 35.7056 40.2925 35.7211 40.2782 35.738C40.0213 35.9598 39.6911 36.0834 39.3957 36.0834C39.258 36.0834 39.0935 36.0507 38.9186 35.9778Z" fill="white" stroke="white" stroke-width="2.54167"/>
<path d="M20.4389 43.2313L20.4457 43.2151L20.452 43.1987C20.5213 43.0185 20.6066 42.894 20.6982 42.8024C20.8936 42.607 21.2187 42.4693 21.6042 42.4693C21.9822 42.4693 22.3021 42.6017 22.4986 42.7911C22.7399 43.0526 22.875 43.3994 22.875 43.7084C22.875 44.0126 22.744 44.3537 22.5095 44.6137C22.2495 44.8482 21.9084 44.9792 21.6042 44.9792C21.4665 44.9792 21.302 44.9465 21.1271 44.8737C20.9738 44.8098 20.8285 44.7215 20.6891 44.6028C20.4608 44.3442 20.3333 44.0084 20.3333 43.7084C20.3333 43.5707 20.366 43.4063 20.4389 43.2313Z" fill="white" stroke="white" stroke-width="2.54167"/>
<path d="M29.3349 43.2313L29.3417 43.2151L29.348 43.1987C29.4173 43.0185 29.5026 42.894 29.5942 42.8024C29.7896 42.607 30.1147 42.4693 30.5002 42.4693C30.8856 42.4693 31.2107 42.607 31.4061 42.8024L32.3047 41.9038L31.4061 42.8024C31.4977 42.894 31.5831 43.0185 31.6524 43.1987L31.6587 43.2151L31.6654 43.2313C31.7383 43.4063 31.771 43.5707 31.771 43.7084C31.771 44.0126 31.64 44.3537 31.4055 44.6137C31.1455 44.8482 30.8044 44.9792 30.5002 44.9792C30.1959 44.9792 29.8549 44.8482 29.5948 44.6137C29.3604 44.3537 29.2293 44.0126 29.2293 43.7084C29.2293 43.5707 29.262 43.4063 29.3349 43.2313Z" fill="white" stroke="white" stroke-width="2.54167"/>
<path d="M38.2435 44.2181L38.2372 44.2017L38.2304 44.1855C38.1575 44.0105 38.1248 43.8461 38.1248 43.7085C38.1248 43.5709 38.1575 43.4064 38.2304 43.2314L38.2372 43.2152L38.2435 43.1988C38.3128 43.0186 38.3981 42.8941 38.4897 42.8025C38.7821 42.5102 39.2356 42.3779 39.607 42.4591L39.6526 42.4691L39.6989 42.4757C39.7301 42.4801 39.752 42.4862 39.7932 42.5068L39.874 42.5472L39.9596 42.5757C39.9909 42.5862 40.0424 42.6085 40.1141 42.6563L40.1392 42.6731L40.1482 42.6785C40.1556 42.6843 40.1675 42.694 40.1866 42.7102C40.2035 42.7246 40.2172 42.7365 40.2348 42.7517C40.246 42.7614 40.2588 42.7725 40.2749 42.7864C40.2888 42.7984 40.3043 42.8117 40.3211 42.8259C40.5429 43.0829 40.6665 43.413 40.6665 43.7085C40.6665 44.0127 40.5355 44.3538 40.301 44.6138C40.041 44.8483 39.6999 44.9793 39.3957 44.9793C39.0867 44.9793 38.7398 44.8442 38.4783 44.6029C38.3911 44.5124 38.3099 44.3909 38.2435 44.2181Z" fill="white" stroke="white" stroke-width="2.54167"/>
<path d="M52.1043 24.2391H8.896C8.55577 24.2391 8.26058 23.9439 8.26058 23.6036C8.26058 23.2634 8.55577 22.9682 8.896 22.9682H52.1043C52.4445 22.9682 52.7397 23.2634 52.7397 23.6036C52.7397 23.9439 52.4445 24.2391 52.1043 24.2391Z" fill="white" stroke="white" stroke-width="2.54167"/>
<path d="M40.6667 57.0521H20.3333C15.936 57.0521 12.6413 55.7915 10.4458 53.596C8.2502 51.4004 6.98958 48.1057 6.98958 43.7084V22.1042C6.98958 17.7069 8.2502 14.4122 10.4458 12.2166C12.6413 10.0211 15.936 8.76046 20.3333 8.76046H40.6667C45.064 8.76046 48.3587 10.0211 50.5542 12.2166C52.7498 14.4122 54.0104 17.7069 54.0104 22.1042V43.7084C54.0104 48.1057 52.7498 51.4004 50.5542 53.596C48.3587 55.7915 45.064 57.0521 40.6667 57.0521ZM20.3333 10.0313C16.512 10.0313 13.4265 10.9598 11.3077 13.0786C9.18897 15.1974 8.26042 18.2828 8.26042 22.1042V43.7084C8.26042 47.5297 9.18897 50.6152 11.3077 52.734C13.4265 54.8527 16.512 55.7813 20.3333 55.7813H40.6667C44.488 55.7813 47.5735 54.8527 49.6923 52.734C51.811 50.6152 52.7396 47.5297 52.7396 43.7084V22.1042C52.7396 18.2828 51.811 15.1974 49.6923 13.0786C47.5735 10.9598 44.488 10.0313 40.6667 10.0313H20.3333Z" fill="white" stroke="white" stroke-width="2.54167"/>
</svg>
