<svg width="40" height="39" viewBox="0 0 40 39" fill="none" xmlns="http://www.w3.org/2000/svg">
<g id="Social Icons / White / Dribbble">
<path id="BG" opacity="0.1" fill-rule="evenodd" clip-rule="evenodd" d="M0.799805 19.2C0.799805 8.59613 9.39594 -3.8147e-06 19.9998 -3.8147e-06C30.6037 -3.8147e-06 39.1998 8.59613 39.1998 19.2C39.1998 29.8039 30.6037 38.4 19.9998 38.4C9.39594 38.4 0.799805 29.8039 0.799805 19.2Z" fill="white"/>
<path id="Path" fill-rule="evenodd" clip-rule="evenodd" d="M30.2398 19.1858C30.2398 19.8783 30.1693 20.5699 30.0308 21.244C29.8958 21.9021 29.6958 22.5481 29.4338 23.1658C29.1778 23.7725 28.8602 24.3571 28.4892 24.9023C28.1237 25.4441 27.7027 25.9524 27.2402 26.4158C26.7766 26.8771 26.2666 27.297 25.7251 27.664C25.1781 28.0325 24.5926 28.3495 23.9855 28.6067C23.367 28.8673 22.7194 29.0671 22.0619 29.2018C21.3869 29.3407 20.6928 29.4116 19.9993 29.4116C19.3053 29.4116 18.6112 29.3407 17.9372 29.2018C17.2787 29.0671 16.6311 28.8673 16.0131 28.6067C15.4061 28.3495 14.82 28.0325 14.273 27.664C13.7315 27.297 13.2215 26.8771 12.7589 26.4158C12.2959 25.9524 11.8749 25.4441 11.5089 24.9023C11.1399 24.3571 10.8218 23.7724 10.5648 23.1658C10.3028 22.5481 10.1023 21.902 9.96678 21.244C9.82979 20.5699 9.75977 19.8783 9.75977 19.1858C9.75977 18.4928 9.82975 17.7997 9.96682 17.1271C10.1023 16.469 10.3028 15.8219 10.5649 15.2053C10.8219 14.5982 11.1399 14.013 11.5089 13.4677C11.8749 12.9255 12.296 12.4182 12.759 11.9543C13.2215 11.4929 13.7315 11.0741 14.2731 10.7076C14.8201 10.3376 15.4061 10.0206 16.0131 9.76289C16.6312 9.5017 17.2787 9.30151 17.9372 9.16772C18.6113 9.02992 19.3053 8.96 19.9993 8.96C20.6929 8.96 21.3869 9.02992 22.0619 9.16772C22.7194 9.30155 23.367 9.50174 23.9855 9.76289C24.5926 10.0205 25.1781 10.3376 25.7251 10.7076C26.2666 11.0741 26.7767 11.4929 27.2402 11.9543C27.7027 12.4182 28.1238 12.9255 28.4893 13.4677C28.8602 14.013 29.1778 14.5982 29.4338 15.2053C29.6958 15.8219 29.8958 16.469 30.0308 17.1271C30.1693 17.7997 30.2398 18.4928 30.2398 19.1858ZM16.2681 11.2873C13.8294 12.4372 12.0093 14.681 11.4418 17.3853C11.6723 17.3873 15.3165 17.4332 19.5152 16.3193C18.0017 13.634 16.3846 11.4426 16.2681 11.2873ZM20.2397 17.6639C15.737 19.01 11.4163 18.9132 11.2613 18.9072C11.2588 19.001 11.2543 19.0919 11.2543 19.1858C11.2543 21.4291 12.1018 23.4743 13.4949 25.0207C13.4919 25.0162 15.8851 20.7766 20.6043 19.2527C20.7183 19.2148 20.8343 19.1808 20.9493 19.1479C20.7298 18.6516 20.4903 18.1543 20.2397 17.6639ZM25.7746 12.6319C24.235 11.2763 22.2134 10.454 19.9993 10.454C19.2887 10.454 18.5992 10.5398 17.9387 10.6986C18.0696 10.8744 19.7123 13.0503 21.2078 15.7925C24.5075 14.5572 25.7531 12.6638 25.7746 12.6319ZM21.5454 20.5948C21.5259 20.6013 21.5064 20.6068 21.4874 20.6138C16.3277 22.41 14.6428 26.0297 14.6245 26.0692C16.1091 27.2221 17.9712 27.9176 19.9993 27.9176C21.2104 27.9176 22.3639 27.6714 23.4135 27.2256C23.284 26.4627 22.7759 23.7884 21.5454 20.5948ZM24.886 26.4277C26.8496 25.1046 28.2442 23.0035 28.6332 20.5698C28.4532 20.5119 26.0066 19.7385 23.1839 20.1904C24.331 23.338 24.797 25.9015 24.886 26.4277ZM21.8809 17.0937C22.0839 17.5101 22.2804 17.934 22.4619 18.3599C22.5265 18.5127 22.5895 18.6625 22.651 18.8123C25.6551 18.4348 28.6148 19.0699 28.7413 19.0959C28.7213 17.0258 27.9797 15.1259 26.7527 13.6385C26.7362 13.6619 25.3336 15.6856 21.8809 17.0937Z" fill="white"/>
</g>
</svg>
