<svg width="61" height="62" viewBox="0 0 61 62" fill="none" xmlns="http://www.w3.org/2000/svg">
<path d="M30.4999 56.4167C44.5372 56.4167 55.9166 45.0373 55.9166 31C55.9166 16.9628 44.5372 5.58337 30.4999 5.58337C16.4627 5.58337 5.08325 16.9628 5.08325 31C5.08325 45.0373 16.4627 56.4167 30.4999 56.4167Z" stroke="white" stroke-width="3.8125" stroke-linecap="round" stroke-linejoin="round"/>
<path d="M20.3332 8.125H22.8749C17.9187 22.9683 17.9187 39.0317 22.8749 53.875H20.3332" stroke="white" stroke-width="3.8125" stroke-linecap="round" stroke-linejoin="round"/>
<path d="M38.125 8.125C43.0812 22.9683 43.0812 39.0317 38.125 53.875" stroke="white" stroke-width="3.8125" stroke-linecap="round" stroke-linejoin="round"/>
<path d="M7.625 41.1667V38.625C22.4683 43.5812 38.5317 43.5812 53.375 38.625V41.1667" stroke="white" stroke-width="3.8125" stroke-linecap="round" stroke-linejoin="round"/>
<path d="M7.625 23.375C22.4683 18.4188 38.5317 18.4188 53.375 23.375" stroke="white" stroke-width="3.8125" stroke-linecap="round" stroke-linejoin="round"/>
</svg>
