<svg width="40" height="39" viewBox="0 0 40 39" fill="none" xmlns="http://www.w3.org/2000/svg">
<g id="Social Icons / White / Instagram">
<path id="BG" opacity="0.1" fill-rule="evenodd" clip-rule="evenodd" d="M0.799805 19.6C0.799805 8.99613 9.39594 0.399994 19.9998 0.399994C30.6037 0.399994 39.1998 8.99613 39.1998 19.6C39.1998 30.2039 30.6037 38.8 19.9998 38.8C9.39594 38.8 0.799805 30.2039 0.799805 19.6Z" fill="white"/>
<path id="Path" fill-rule="evenodd" clip-rule="evenodd" d="M20.0007 9.35999C17.2197 9.35999 16.8707 9.37215 15.7784 9.42186C14.6882 9.47178 13.9441 9.64437 13.293 9.8976C12.6195 10.1591 12.0482 10.509 11.479 11.0784C10.9094 11.6476 10.5596 12.2189 10.2972 12.8922C10.0433 13.5435 9.87049 14.2878 9.82142 15.3776C9.77257 16.4698 9.75977 16.8191 9.75977 19.6001C9.75977 22.3811 9.77214 22.7291 9.82163 23.8214C9.87177 24.9115 10.0444 25.6556 10.2974 26.3067C10.5591 26.9802 10.909 27.5515 11.4784 28.1207C12.0474 28.6903 12.6187 29.0411 13.2917 29.3026C13.9433 29.5558 14.6876 29.7284 15.7775 29.7783C16.8698 29.828 17.2186 29.8402 19.9994 29.8402C22.7807 29.8402 23.1287 29.828 24.2209 29.7783C25.3111 29.7284 26.056 29.5558 26.7076 29.3026C27.3809 29.0411 27.9513 28.6903 28.5203 28.1207C29.0899 27.5515 29.4398 26.9802 29.7022 26.3069C29.9539 25.6556 30.1267 24.9113 30.1779 23.8216C30.227 22.7293 30.2398 22.3811 30.2398 19.6001C30.2398 16.8191 30.227 16.47 30.1779 15.3778C30.1267 14.2876 29.9539 13.5435 29.7022 12.8924C29.4398 12.2189 29.0899 11.6476 28.5203 11.0784C27.9507 10.5088 27.3811 10.1589 26.7069 9.8976C26.0541 9.64437 25.3096 9.47178 24.2194 9.42186C23.1272 9.37215 22.7794 9.35999 19.9975 9.35999H20.0007ZM19.0821 11.2053C19.3547 11.2049 19.6589 11.2053 20.0007 11.2053C22.7348 11.2053 23.0588 11.2151 24.1385 11.2642C25.1369 11.3099 25.6788 11.4767 26.0398 11.6168C26.5177 11.8024 26.8584 12.0243 27.2165 12.3827C27.5749 12.7411 27.7968 13.0825 27.9828 13.5603C28.123 13.9209 28.29 14.4627 28.3355 15.4611C28.3846 16.5406 28.3952 16.8649 28.3952 19.5977C28.3952 22.3306 28.3846 22.6548 28.3355 23.7343C28.2898 24.7327 28.123 25.2746 27.9828 25.6351C27.7972 26.113 27.5749 26.4533 27.2165 26.8115C26.8581 27.1699 26.5179 27.3917 26.0398 27.5773C25.6792 27.7181 25.1369 27.8845 24.1385 27.9302C23.0591 27.9793 22.7348 27.9899 20.0007 27.9899C17.2664 27.9899 16.9423 27.9793 15.8628 27.9302C14.8644 27.8841 14.3225 27.7173 13.9614 27.5771C13.4835 27.3915 13.1422 27.1696 12.7838 26.8112C12.4253 26.4528 12.2035 26.1124 12.0175 25.6343C11.8773 25.2737 11.7102 24.7319 11.6648 23.7334C11.6157 22.654 11.6059 22.3297 11.6059 19.5952C11.6059 16.8606 11.6157 16.5381 11.6648 15.4586C11.7105 14.4602 11.8773 13.9183 12.0175 13.5573C12.2031 13.0795 12.4253 12.7381 12.7838 12.3797C13.1422 12.0213 13.4835 11.7995 13.9614 11.6134C14.3223 11.4726 14.8644 11.3062 15.8628 11.2604C16.8075 11.2177 17.1736 11.2049 19.0821 11.2028V11.2053ZM25.4668 12.9056C24.7884 12.9056 24.238 13.4554 24.238 14.134C24.238 14.8124 24.7884 15.3628 25.4668 15.3628C26.1452 15.3628 26.6956 14.8124 26.6956 14.134C26.6956 13.4556 26.1452 12.9056 25.4668 12.9056ZM20.0007 14.3414C17.0966 14.3414 14.742 16.6959 14.742 19.6001C14.742 22.5042 17.0966 24.8577 20.0007 24.8577C22.9049 24.8577 25.2586 22.5042 25.2586 19.6001C25.2586 16.6959 22.9049 14.3414 20.0007 14.3414ZM20.0007 16.1867C21.8857 16.1867 23.4141 17.7148 23.4141 19.6001C23.4141 21.4851 21.8857 23.0134 20.0007 23.0134C18.1155 23.0134 16.5873 21.4851 16.5873 19.6001C16.5873 17.7148 18.1155 16.1867 20.0007 16.1867Z" fill="white"/>
</g>
</svg>
