<svg width="61" height="62" viewBox="0 0 61 62" fill="none" xmlns="http://www.w3.org/2000/svg">
<path d="M50.2995 38.4471C45.0637 43.6575 37.5657 45.2588 30.9828 43.2L19.0116 55.1459C18.1474 56.0354 16.4445 56.5692 15.2245 56.3913L9.68365 55.6288C7.85365 55.3746 6.15074 53.6463 5.87115 51.8163L5.10865 46.2754C4.93074 45.0554 5.51532 43.3525 6.35407 42.4884L18.2999 30.5425C16.2666 23.9342 17.8424 16.4363 23.0782 11.2259C30.5762 3.72794 42.7507 3.72794 50.2741 11.2259C57.7974 18.7238 57.7974 30.9492 50.2995 38.4471Z" stroke="white" stroke-width="3.8125" stroke-miterlimit="10" stroke-linecap="round" stroke-linejoin="round"/>
<path d="M17.5122 44.9537L23.358 50.7996" stroke="white" stroke-width="3.8125" stroke-miterlimit="10" stroke-linecap="round" stroke-linejoin="round"/>
<path d="M36.854 28.4584C38.9596 28.4584 40.6665 26.7515 40.6665 24.6459C40.6665 22.5403 38.9596 20.8334 36.854 20.8334C34.7484 20.8334 33.0415 22.5403 33.0415 24.6459C33.0415 26.7515 34.7484 28.4584 36.854 28.4584Z" stroke="white" stroke-width="3.8125" stroke-linecap="round" stroke-linejoin="round"/>
</svg>
