<svg width="61" height="62" viewBox="0 0 61 62" fill="none" xmlns="http://www.w3.org/2000/svg">
<path d="M27.9583 7.10845L15.2499 14.2251C13.7249 15.2418 12.7083 16.7668 12.7083 18.5459V41.1668C12.7083 42.6918 13.4708 44.4709 14.7416 45.2334L27.4499 54.3834C29.2291 55.6543 31.5166 55.6543 33.2958 54.3834L46.0041 45.2334C47.2749 44.2168 48.0374 42.6918 48.0374 41.1668V18.8001C48.0374 17.0209 47.0208 15.2418 45.4958 14.4793L32.7874 7.10845C31.5166 6.09178 29.4833 6.09178 27.9583 7.10845Z" stroke="white" stroke-width="3.8125" stroke-miterlimit="10" stroke-linecap="round" stroke-linejoin="round"/>
<path d="M30.5001 8.125L25.4167 31L29.9917 54.3833" stroke="white" stroke-width="3.8125" stroke-miterlimit="10" stroke-linecap="round" stroke-linejoin="round"/>
<path d="M46.2584 43.4543L25.4167 31.0002L47.0209 19.0543" stroke="white" stroke-width="3.8125" stroke-miterlimit="10" stroke-linecap="round" stroke-linejoin="round"/>
</svg>
