<svg width="61" height="62" viewBox="0 0 61 62" fill="none" xmlns="http://www.w3.org/2000/svg">
<path d="M53.146 28.7633C53.146 41.1921 44.1231 52.8329 31.796 56.2387C30.9573 56.4675 30.0422 56.4675 29.2035 56.2387C16.8764 52.8329 7.85352 41.1921 7.85352 28.7633V17.6054C7.85352 15.5212 9.42939 13.1574 11.3865 12.3695L25.5435 6.5746C28.7206 5.27835 32.3043 5.27835 35.4814 6.5746L49.6385 12.3695C51.5702 13.1574 53.1715 15.5212 53.1715 17.6054L53.146 28.7633Z" stroke="white" stroke-width="3.8125" stroke-linecap="round" stroke-linejoin="round"/>
<path d="M30.4998 32.2708C33.3073 32.2708 35.5832 29.9949 35.5832 27.1875C35.5832 24.38 33.3073 22.1041 30.4998 22.1041C27.6924 22.1041 25.4165 24.38 25.4165 27.1875C25.4165 29.9949 27.6924 32.2708 30.4998 32.2708Z" stroke="white" stroke-width="3.8125" stroke-miterlimit="10" stroke-linecap="round" stroke-linejoin="round"/>
<path d="M30.5 32.2708V39.8958" stroke="white" stroke-width="3.8125" stroke-miterlimit="10" stroke-linecap="round" stroke-linejoin="round"/>
</svg>
