<svg width="40" height="39" viewBox="0 0 40 39" fill="none" xmlns="http://www.w3.org/2000/svg">
<g id="Social Icons / White / Twitter">
<path id="BG" opacity="0.1" fill-rule="evenodd" clip-rule="evenodd" d="M0.799805 19.8C0.799805 9.19613 9.39594 0.599998 19.9998 0.599998C30.6037 0.599998 39.1998 9.19613 39.1998 19.8C39.1998 30.4039 30.6037 39 19.9998 39C9.39594 39 0.799805 30.4039 0.799805 19.8Z" fill="white"/>
<path id="Path" fill-rule="evenodd" clip-rule="evenodd" d="M19.4249 16.206L19.4652 16.8704L18.7937 16.789C16.3494 16.4772 14.214 15.4196 12.401 13.6435L11.5146 12.7622L11.2863 13.413C10.8028 14.8637 11.1117 16.3958 12.1189 17.4263C12.6561 17.9957 12.5353 18.0771 11.6086 17.7381C11.2863 17.6296 11.0043 17.5483 10.9774 17.589C10.8834 17.6839 11.2057 18.9177 11.4609 19.4058C11.8101 20.0837 12.5218 20.7481 13.3008 21.1413L13.9589 21.4531L13.1799 21.4667C12.4278 21.4667 12.401 21.4802 12.4816 21.765C12.7502 22.6463 13.8111 23.5818 14.993 23.9885L15.8256 24.2733L15.1004 24.7071C14.026 25.3308 12.7636 25.6833 11.5012 25.7105C10.8968 25.724 10.3999 25.7783 10.3999 25.8189C10.3999 25.9545 12.0384 26.7138 12.9919 27.0121C15.8525 27.8934 19.2503 27.5137 21.802 26.0087C23.615 24.9376 25.4281 22.809 26.2742 20.7481C26.7308 19.6498 27.1874 17.6432 27.1874 16.6805C27.1874 16.0569 27.2277 15.9755 27.9798 15.2298C28.423 14.7959 28.8393 14.3214 28.9199 14.1858C29.0542 13.9282 29.0407 13.9282 28.3558 14.1587C27.2143 14.5654 27.0531 14.5112 27.6172 13.9011C28.0335 13.4672 28.5304 12.6808 28.5304 12.4503C28.5304 12.4096 28.329 12.4774 28.1006 12.5995C27.8589 12.735 27.3217 12.9384 26.9188 13.0604L26.1936 13.2909L25.5355 12.8435C25.1729 12.5995 24.6626 12.3283 24.394 12.2469C23.709 12.0571 22.6615 12.0842 22.0437 12.3012C20.365 12.9113 19.304 14.4841 19.4249 16.206Z" fill="white"/>
</g>
</svg>
