<svg width="61" height="62" viewBox="0 0 61 62" fill="none" xmlns="http://www.w3.org/2000/svg">
<path d="M30.4998 31C37.5185 31 43.2082 25.3103 43.2082 18.2917C43.2082 11.2731 37.5185 5.58337 30.4998 5.58337C23.4812 5.58337 17.7915 11.2731 17.7915 18.2917C17.7915 25.3103 23.4812 31 30.4998 31Z" stroke="white" stroke-width="3.8125" stroke-linecap="round" stroke-linejoin="round"/>
<path d="M8.66699 56.4167C8.66699 46.5804 18.4524 38.625 30.4999 38.625C32.9399 38.625 35.3037 38.9554 37.5149 39.5654" stroke="white" stroke-width="3.8125" stroke-linecap="round" stroke-linejoin="round"/>
<path d="M55.9168 46.25C55.9168 48.1563 55.3831 49.9609 54.4427 51.4859C53.9089 52.4009 53.2227 53.2142 52.4348 53.875C50.6556 55.4763 48.3172 56.4167 45.7502 56.4167C42.0393 56.4167 38.8114 54.4342 37.0576 51.4859C36.1172 49.9609 35.5835 48.1563 35.5835 46.25C35.5835 43.0475 37.0577 40.1755 39.396 38.3201C41.1497 36.9221 43.361 36.0834 45.7502 36.0834C51.3672 36.0834 55.9168 40.633 55.9168 46.25Z" stroke="white" stroke-width="3.8125" stroke-miterlimit="10" stroke-linecap="round" stroke-linejoin="round"/>
<path d="M41.7852 46.2501L44.3014 48.7663L49.7151 43.7593" stroke="white" stroke-width="3.8125" stroke-linecap="round" stroke-linejoin="round"/>
</svg>
