<svg width="40" height="39" viewBox="0 0 40 39" fill="none" xmlns="http://www.w3.org/2000/svg">
<g id="Social Icons / White / Youtube">
<path id="BG" opacity="0.1" fill-rule="evenodd" clip-rule="evenodd" d="M0.799805 19.4C0.799805 8.79613 9.39594 0.199997 19.9998 0.199997C30.6037 0.199997 39.1998 8.79613 39.1998 19.4C39.1998 30.0039 30.6037 38.6 19.9998 38.6C9.39594 38.6 0.799805 30.0039 0.799805 19.4Z" fill="white"/>
<path id="Path" fill-rule="evenodd" clip-rule="evenodd" d="M28.001 12.7995C28.8823 13.0413 29.5763 13.7538 29.8118 14.6586C30.2398 16.2985 30.2398 19.72 30.2398 19.72C30.2398 19.72 30.2398 23.1415 29.8118 24.7815C29.5763 25.6863 28.8823 26.3988 28.001 26.6407C26.4041 27.08 19.9998 27.08 19.9998 27.08C19.9998 27.08 13.5955 27.08 11.9984 26.6407C11.1171 26.3988 10.4232 25.6863 10.1876 24.7815C9.75977 23.1415 9.75977 19.72 9.75977 19.72C9.75977 19.72 9.75977 16.2985 10.1876 14.6586C10.4232 13.7538 11.1171 13.0413 11.9984 12.7995C13.5955 12.36 19.9998 12.36 19.9998 12.36C19.9998 12.36 26.4041 12.36 28.001 12.7995ZM18.0798 16.84V23.24L23.1998 20.0401L18.0798 16.84Z" fill="white"/>
</g>
</svg>
